inDegrees=yes
name=ik_lifting_orientations
DataType=double
version=3
OpenSimVersion=4.5-2024-01-10-34fd6af
endheader
time	pelvis_tilt	pelvis_list	pelvis_rotation	pelvis_tx	pelvis_ty	pelvis_tz	hip_flexion_r	hip_adduction_r	hip_rotation_r	knee_angle_r	knee_angle_r_beta	ankle_angle_r	subtalar_angle_r	mtp_angle_r	hip_flexion_l	hip_adduction_l	hip_rotation_l	knee_angle_l	knee_angle_l_beta	ankle_angle_l	subtalar_angle_l	mtp_angle_l	lumbar_extension	lumbar_bending	lumbar_rotation	arm_flex_r	arm_add_r	arm_rot_r	elbow_flex_r	pro_sup_r	wrist_flex_r	wrist_dev_r	arm_flex_l	arm_add_l	arm_rot_l	elbow_flex_l	pro_sup_l	wrist_flex_l	wrist_dev_l
2.23	0.1250557903608042	0.2276952120819453	-55.75581362013236	0	0.9399999998679526	0	44.99723006530932	-10.04649363838466	0	59.99873246114309	1.047175428470148	-5.009771706407146	0	0	44.99723006530932	-10.04649363838466	0	59.99873246114309	1.047175428470148	-5.009771706407146	0	0	-0.2598633994760296	1.081617228381986	-23.92605060729521	57.80197337031264	-20.55007779150608	5.602431178289146	83.79174861597774	1.024781728748262	0	0	0	-12.65328965213654	0	88.99540578160358	1.024781728748262	0	0
2.24	0.1167188318808181	0.1957397365999537	-55.94547457173079	0	0.9399999998679526	0	44.99723110737285	-10.04643241963608	0	59.99873287630595	1.047175435716106	-5.009754917407644	0	0	44.99723110737285	-10.04643241963608	0	59.99873287630595	1.047175435716106	-5.009754917407644	0	0	-0.3227973426801942	1.256130692656697	-23.69740517470115	59.84834258391005	-19.95476028606502	5.971019954226233	82.64718015951824	1.024513611351185	0	0	0	-12.65374133993831	0	88.99566857030072	1.024513611351185	0	0
2.25	0.09988684274021643	0.1620679504913025	-56.13819961881548	0	0.9399999998679526	0	44.9972322244347	-10.04636692562921	0	59.99873332175346	1.047175443490632	-5.009736966905249	0	0	44.9972322244347	-10.04636692562921	0	59.99873332175346	1.047175443490632	-5.009736966905249	0	0	-0.3989986161609781	1.468317853691748	-23.5742010440647	61.95068237169368	-19.43122732446138	6.463230576964023	81.08548049281411	1.024226071832829	0	0	0	-12.6542259134249	0	88.99595039511652	1.024226071832829	0	0
2.26	0.1021585298349613	0.1812299761758348	-56.66229281762111	0	0.9399999998679526	0	44.99723324919216	-10.04630686505461	0	59.99873373022426	1.047175450619793	-5.009720510492528	0	0	44.99723324919216	-10.04630686505461	0	59.99873373022426	1.047175450619793	-5.009720510492528	0	0	-0.4467987029026361	1.614628228977739	-23.10130686401687	63.96408165580301	-18.93204554085717	6.972397119546249	80.11690172246058	1.023962311395124	0	0	0	-12.654670372465	0	88.99620891344884	1.023962311395124	0	0
2.27	0.07410484498071065	0.1196728998357219	-56.43024525120261	0	0.9399999998679526	0	44.99723410226912	-10.04625691251789	0	59.99873407031586	1.047175456555511	-5.009706828683117	0	0	44.99723410226912	-10.04625691251789	0	59.99873407031586	1.047175456555511	-5.009706828683117	0	0	-0.5154956698830961	1.815408845356562	-23.42236049694296	66.03453807760138	-18.51138655239802	7.343137691882497	79.41952400830313	1.023742710336055	0	0	0	-12.65504045205179	0	88.99642415004854	1.023742710336055	0	0
2.28	0.05306798264703007	0.08849797923860582	-55.20034712655202	0	0.9399999998679526	0	44.99723496555149	-10.04620655281324	0	59.99873441532467	1.04717546257705	-5.009693047937632	0	0	44.99723496555149	-10.04620655281324	0	59.99873441532467	1.04717546257705	-5.009693047937632	0	0	-0.513740564674559	1.952933694869518	-24.77739483294419	67.66617971011355	-18.20868228315281	7.557649861761	78.55882727403439	1.023520255443343	0	0	0	-12.65541565743458	0	88.99664218376731	1.023520255443343	0	0
2.29	0.020144806556892	0.02252106826973609	-53.66426612692542	0	0.9399999998679526	0	44.99723577752457	-10.04615932147324	0	59.99873474039914	1.04717546825067	-5.009680132620365	0	0	44.99723577752457	-10.04615932147324	0	59.99873474039914	1.04717546825067	-5.009680132620365	0	0	-0.5023471231796847	2.07535777180984	-26.46098533352011	69.0743464912685	-17.43277724553997	7.632889838356052	77.48749532437009	1.023310866217905	0	0	0	-12.65576904135742	0	88.99684741149487	1.023310866217905	0	0
2.3	-0.02813508192942045	-0.05268031916605069	-51.46929369060985	0	0.9399999998679526	0	44.99723738274816	-10.0460657911959	0	59.99873538166897	1.04717547944294	-5.00965455542844	0	0	44.99723738274816	-10.0460657911959	0	59.99873538166897	1.04717547944294	-5.00965455542844	0	0	-0.4794492094688643	2.324933011722902	-28.87561476313353	71.04864618621578	-16.60692239263998	8.116534547185587	75.73488915193344	1.022897219194618	0	0	0	-12.65646668947981	0	88.99725283750209	1.022897219194618	0	0
2.31	-0.03123516991514819	-0.0890669292236288	-49.60927776326426	0	0.9399999998679526	0	44.9972382437194	-10.04601578829883	0	59.99873572624728	1.047175485456966	-5.009640893444251	0	0	44.9972382437194	-10.04601578829883	0	59.99873572624728	1.047175485456966	-5.009640893444251	0	0	-0.4315264115558575	2.436760353915565	-30.99480682182415	72.87032312826022	-15.62657128012187	8.665301413427395	74.58158941622709	1.022675178976087	0	0	0	-12.65684142140301	0	88.99747046479177	1.022675178976087	0	0
2.32	-0.08904853419519243	-0.2331386164142858	-48.22772813540063	0	0.9399999998679526	0	44.99723905433446	-10.04596872470545	0	59.99873605058119	1.047175491117661	-5.009628037557933	0	0	44.99723905433446	-10.04596872470545	0	59.99873605058119	1.047175491117661	-5.009628037557933	0	0	-0.4572232047411639	2.741928194849891	-32.69212924757614	74.76421822243113	-14.58828662323437	9.267173170939531	73.40547384763704	1.022466134022035	0	0	0	-12.65719420137044	0	88.99767535509079	1.022466134022035	0	0
2.33	-0.1854666501311914	-0.4536990819224088	-47.01120685379902	0	0.9399999998679526	0	44.99723992602065	-10.0459181274486	0	59.99873639923128	1.047175497202753	-5.009614219453804	0	0	44.99723992602065	-10.0459181274486	0	59.99873639923128	1.047175497202753	-5.009614219453804	0	0	-0.496830277869524	3.046274551852751	-34.16511438096558	76.492904750863	-13.55247453964324	9.605923344355185	72.04024349165957	1.022241354449894	0	0	0	-12.65757350520983	0	88.9978956672909	1.022241354449894	0	0
2.34	-0.2726032470978259	-0.6686029603685487	-45.67028994810099	0	0.9399999998679526	0	44.99724092934738	-10.04585988685662	0	59.99873680027466	1.04717550420228	-5.009598317033256	0	0	44.99724092934738	-10.04585988685662	0	59.99873680027466	1.04717550420228	-5.009598317033256	0	0	-0.5151459906557743	3.29669113990032	-35.6664939287643	77.95935856478214	-12.49888716308008	9.718754586270997	70.73203787559865	1.021982673789595	0	0	0	-12.65800993991279	0	88.9981492068129	1.021982673789595	0	0
2.35	-0.3130989958858305	-0.7864222194036939	-44.56743304452223	0	0.9399999998679526	0	44.99724186438532	-10.04580579636055	0	59.99873717481488	1.04717551073924	-5.009583560601826	0	0	44.99724186438532	-10.04580579636055	0	59.99873717481488	1.04717551073924	-5.009583560601826	0	0	-0.4988401891564104	3.372521148144609	-36.91822826770348	79.46010606582119	-11.68326568849319	9.949231953970502	68.97903847032561	1.021741383638484	0	0	0	-12.65841733289051	0	88.99838570145641	1.021741383638484	0	0
2.36	-0.3412594852050927	-0.8704878941204924	-44.22533742156856	0	0.9399999998679526	0	44.9972426703279	-10.04575907180516	0	59.99873749690222	1.047175516360725	-5.009570810594733	0	0	44.9972426703279	-10.04575907180516	0	59.99873749690222	1.047175516360725	-5.009570810594733	0	0	-0.5031153706910776	3.410863530746013	-37.41785965951699	80.80984877033471	-11.04493348043578	10.23134454784107	67.76987139991691	1.021533577333533	0	0	0	-12.65876793970511	0	88.99858937772402	1.021533577333533	0	0
2.37	-0.3589085767244675	-0.8780504448571311	-44.9058983442631	0	0.9399999998679526	0	44.99724359795169	-10.04570529802	0	59.99873786744379	1.047175522827895	-5.009556139924099	0	0	44.99724359795169	-10.04570529802	0	59.99873786744379	1.047175522827895	-5.009556139924099	0	0	-0.5428744396902777	3.486713981905864	-36.86024642636792	82.29929736685321	-10.67900781146506	10.26442936921219	66.69525468812141	1.021294423611396	0	0	0	-12.65917138691684	0	88.99882377839559	1.021294423611396	0	0
2.38	-0.381154732147525	-0.8808279876308991	-46.08908495701591	0	0.9399999998679526	0	44.99724485687642	-10.0456325683648	0	59.99873837130503	1.047175531621933	-5.009536315886026	0	0	44.99724485687642	-10.0456325683648	0	59.99873837130503	1.047175531621933	-5.009536315886026	0	0	-0.6111017281432942	3.467004530286316	-35.82788408348822	83.7314452325208	-10.25859954198572	10.22635534257234	64.96996458027803	1.020969581373991	0	0	0	-12.65971976365426	0	88.99914216457458	1.020969581373991	0	0
2.39	-0.3734835451302223	-0.8989727863498781	-47.45698411909961	0	0.9399999998679526	0	44.99724576310508	-10.04558065630583	0	59.99873873618684	1.047175537990322	-5.009522192812588	0	0	44.99724576310508	-10.04558065630583	0	59.99873873618684	1.047175537990322	-5.009522192812588	0	0	-0.6762286087815168	3.412784226539366	-34.60699972735664	84.96246273378536	-9.322755810329001	10.23431845240493	63.44055717476537	1.020735181613501	0	0	0	-12.66011625835141	0	88.99937190577997	1.020735181613501	0	0
2.4	-0.3896186001789831	-0.8729350983418238	-48.82394612497789	0	0.9399999998679526	0	44.99724668541818	-10.04552811713574	0	59.9987391089988	1.047175544497118	-5.009507917004158	0	0	44.99724668541818	-10.04552811713574	0	59.9987391089988	1.047175544497118	-5.009507917004158	0	0	-0.734932791662354	3.40214130724881	-33.41181067099467	86.15214716576497	-8.505483683713905	10.26612920240525	61.92064038218637	1.020496243294297	0	0	0	-12.66052096472096	0	88.99960609534946	1.020496243294297	0	0
2.41	-0.4096129038572306	-0.8859142657513936	-50.31325472112255	0	0.9399999998679526	0	44.99724773801614	-10.04546777022814	0	59.99873953203631	1.047175551880515	-5.00949150279497	0	0	44.99724773801614	-10.04546777022814	0	59.99873953203631	1.047175551880515	-5.00949150279497	0	0	-0.8398437418277421	3.532679128408795	-32.19937735033558	87.49065966137111	-7.561809510540781	10.28300199732353	60.59765239849617	1.020224137026893	0	0	0	-12.66098100024396	0	88.99987279366549	1.020224137026893	0	0
2.42	-0.4317528747626138	-0.8935686342577348	-51.79662237699101	0	0.9399999998679526	0	44.99724894463284	-10.04539826600847	0	59.99874001483106	1.047175560306874	-5.009472584657448	0	0	44.99724894463284	-10.04539826600847	0	59.99874001483106	1.047175560306874	-5.009472584657448	0	0	-0.9040745997360613	3.448295240671741	-31.01719428842175	89.58266109652502	-6.276793966067103	10.0240178598886	58.2621202450308	1.019912722437862	0	0	0	-12.66150675129401	0	89.00017801906537	1.019912722437862	0	0
2.43	-0.460943649751115	-0.9294222350172432	-52.94828670883934	0	0.9399999998679526	0	44.99724994761977	-10.04534098316777	0	59.99874041855481	1.047175567353182	-5.009457023017043	0	0	44.99724994761977	-10.04534098316777	0	59.99874041855481	1.047175567353182	-5.009457023017043	0	0	-0.9832062770896958	3.477015243989872	-29.92009378911176	90.72666286916773	-5.695477933602724	9.835394914362249	56.72155943861385	1.019653237780952	0	0	0	-12.66194571137983	0	89.00043234662175	1.019653237780952	0	0
2.44	-0.4686693315848348	-0.9261460198100321	-54.30683791372748	0	0.9399999998679526	0	44.99725092065259	-10.04528559542509	0	59.99874081110153	1.047175574204415	-5.009441987869613	0	0	44.99725092065259	-10.04528559542509	0	59.99874081110153	1.047175574204415	-5.009441987869613	0	0	-1.071016489191148	3.576440509403397	-28.89981160956306	91.24204967902136	-4.956530406558952	9.688344907057314	56.08490050114118	1.019401267571794	0	0	0	-12.66237229255363	0	89.00067930907963	1.019401267571794	0	0
